<mxfile host="65bd71144e">
    <diagram id="9mPYwDPlWi583iXETPs9" name="Page-1">
        <mxGraphModel dx="2092" dy="477" grid="1" gridSize="10" guides="1" tooltips="1" connect="1" arrows="1" fold="1" page="1" pageScale="1" pageWidth="850" pageHeight="1100" math="0" shadow="0">
            <root>
                <mxCell id="0"/>
                <mxCell id="1" parent="0"/>
                <mxCell id="2" value="User&lt;br&gt;" style="shape=umlActor;verticalLabelPosition=bottom;verticalAlign=top;html=1;" parent="1" vertex="1">
                    <mxGeometry x="-160" y="540" width="30" height="60" as="geometry"/>
                </mxCell>
                <mxCell id="6" value="Filter Cinemas by city" style="ellipse;whiteSpace=wrap;html=1;" parent="1" vertex="1">
                    <mxGeometry x="320" y="50" width="140" height="70" as="geometry"/>
                </mxCell>
                <mxCell id="7" value="Search Moveis" style="ellipse;whiteSpace=wrap;html=1;" parent="1" vertex="1">
                    <mxGeometry x="320" y="180" width="140" height="70" as="geometry"/>
                </mxCell>
                <mxCell id="8" value="Search by Title" style="ellipse;whiteSpace=wrap;html=1;" parent="1" vertex="1">
                    <mxGeometry x="200" y="300" width="140" height="70" as="geometry"/>
                </mxCell>
                <mxCell id="9" value="Search by Language" style="ellipse;whiteSpace=wrap;html=1;" parent="1" vertex="1">
                    <mxGeometry x="470" y="290" width="140" height="70" as="geometry"/>
                </mxCell>
                <mxCell id="10" value="Search by Realease Date" style="ellipse;whiteSpace=wrap;html=1;" parent="1" vertex="1">
                    <mxGeometry x="440" y="400" width="140" height="70" as="geometry"/>
                </mxCell>
                <mxCell id="11" value="Search by City Name" style="ellipse;whiteSpace=wrap;html=1;" parent="1" vertex="1">
                    <mxGeometry x="230" y="400" width="140" height="70" as="geometry"/>
                </mxCell>
                <mxCell id="12" value="Extends" style="endArrow=block;endSize=16;endFill=0;html=1;exitX=0.5;exitY=0;exitDx=0;exitDy=0;entryX=0;entryY=1;entryDx=0;entryDy=0;" parent="1" source="8" target="7" edge="1">
                    <mxGeometry width="160" relative="1" as="geometry">
                        <mxPoint x="290" y="280" as="sourcePoint"/>
                        <mxPoint x="450" y="280" as="targetPoint"/>
                    </mxGeometry>
                </mxCell>
                <mxCell id="13" value="Extends" style="endArrow=block;endSize=16;endFill=0;html=1;exitX=0.5;exitY=0;exitDx=0;exitDy=0;entryX=1;entryY=0.5;entryDx=0;entryDy=0;" parent="1" source="9" target="7" edge="1">
                    <mxGeometry width="160" relative="1" as="geometry">
                        <mxPoint x="530" y="270" as="sourcePoint"/>
                        <mxPoint x="690" y="270" as="targetPoint"/>
                    </mxGeometry>
                </mxCell>
                <mxCell id="14" value="Extends" style="endArrow=block;endSize=16;endFill=0;html=1;exitX=0.5;exitY=0;exitDx=0;exitDy=0;entryX=0.5;entryY=1;entryDx=0;entryDy=0;" parent="1" source="11" target="7" edge="1">
                    <mxGeometry width="160" relative="1" as="geometry">
                        <mxPoint x="280" y="380" as="sourcePoint"/>
                        <mxPoint x="440" y="390" as="targetPoint"/>
                        <Array as="points">
                            <mxPoint x="390" y="400"/>
                        </Array>
                    </mxGeometry>
                </mxCell>
                <mxCell id="15" value="Extends" style="endArrow=block;endSize=16;endFill=0;html=1;exitX=0.5;exitY=0;exitDx=0;exitDy=0;entryX=1;entryY=1;entryDx=0;entryDy=0;" parent="1" source="10" target="7" edge="1">
                    <mxGeometry width="160" relative="1" as="geometry">
                        <mxPoint x="510" y="380" as="sourcePoint"/>
                        <mxPoint x="400" y="400" as="targetPoint"/>
                        <Array as="points">
                            <mxPoint x="439" y="400"/>
                        </Array>
                    </mxGeometry>
                </mxCell>
                <mxCell id="59" style="edgeStyle=none;html=1;exitX=0.5;exitY=0.5;exitDx=0;exitDy=0;exitPerimeter=0;entryX=1;entryY=0.5;entryDx=0;entryDy=0;" parent="1" source="16" target="57" edge="1">
                    <mxGeometry relative="1" as="geometry"/>
                </mxCell>
                <mxCell id="60" style="edgeStyle=none;html=1;exitX=0.5;exitY=0.5;exitDx=0;exitDy=0;exitPerimeter=0;entryX=1;entryY=0.5;entryDx=0;entryDy=0;" parent="1" source="16" target="58" edge="1">
                    <mxGeometry relative="1" as="geometry"/>
                </mxCell>
                <mxCell id="16" value="System" style="shape=umlActor;verticalLabelPosition=bottom;verticalAlign=top;html=1;" parent="1" vertex="1">
                    <mxGeometry x="1050" y="720" width="30" height="60" as="geometry"/>
                </mxCell>
                <mxCell id="18" value="Select a cinema" style="ellipse;whiteSpace=wrap;html=1;" parent="1" vertex="1">
                    <mxGeometry x="330" y="510" width="140" height="70" as="geometry"/>
                </mxCell>
                <mxCell id="19" value="Book a Ticket" style="ellipse;whiteSpace=wrap;html=1;" parent="1" vertex="1">
                    <mxGeometry x="380" y="610" width="140" height="70" as="geometry"/>
                </mxCell>
                <mxCell id="20" value="Select a seat" style="ellipse;whiteSpace=wrap;html=1;" parent="1" vertex="1">
                    <mxGeometry x="230" y="690" width="140" height="70" as="geometry"/>
                </mxCell>
                <mxCell id="21" value="Pay for the Ticket" style="ellipse;whiteSpace=wrap;html=1;" parent="1" vertex="1">
                    <mxGeometry x="495" y="690" width="140" height="70" as="geometry"/>
                </mxCell>
                <mxCell id="23" value="" style="endArrow=open;endFill=1;endSize=12;html=1;exitX=0.5;exitY=0.5;exitDx=0;exitDy=0;exitPerimeter=0;entryX=0;entryY=0.5;entryDx=0;entryDy=0;" parent="1" source="2" target="6" edge="1">
                    <mxGeometry width="160" relative="1" as="geometry">
                        <mxPoint x="-80" y="570" as="sourcePoint"/>
                        <mxPoint x="80" y="570" as="targetPoint"/>
                    </mxGeometry>
                </mxCell>
                <mxCell id="24" value="" style="endArrow=open;endFill=1;endSize=12;html=1;entryX=0;entryY=0.5;entryDx=0;entryDy=0;exitX=0.5;exitY=0.5;exitDx=0;exitDy=0;exitPerimeter=0;" parent="1" source="2" target="7" edge="1">
                    <mxGeometry width="160" relative="1" as="geometry">
                        <mxPoint x="-140" y="570" as="sourcePoint"/>
                        <mxPoint x="330" y="95" as="targetPoint"/>
                    </mxGeometry>
                </mxCell>
                <mxCell id="25" value="" style="endArrow=open;endFill=1;endSize=12;html=1;exitX=0.5;exitY=0.5;exitDx=0;exitDy=0;exitPerimeter=0;entryX=0;entryY=0.5;entryDx=0;entryDy=0;" parent="1" source="2" target="18" edge="1">
                    <mxGeometry width="160" relative="1" as="geometry">
                        <mxPoint x="-80" y="580" as="sourcePoint"/>
                        <mxPoint x="80" y="580" as="targetPoint"/>
                    </mxGeometry>
                </mxCell>
                <mxCell id="28" value="" style="endArrow=open;endFill=1;endSize=12;html=1;exitX=0.5;exitY=0.5;exitDx=0;exitDy=0;exitPerimeter=0;entryX=0;entryY=0.5;entryDx=0;entryDy=0;" parent="1" source="2" target="19" edge="1">
                    <mxGeometry width="160" relative="1" as="geometry">
                        <mxPoint x="-70" y="610" as="sourcePoint"/>
                        <mxPoint x="90" y="610" as="targetPoint"/>
                    </mxGeometry>
                </mxCell>
                <mxCell id="37" value="Cancel Ticket" style="ellipse;whiteSpace=wrap;html=1;" parent="1" vertex="1">
                    <mxGeometry x="240" y="820" width="140" height="70" as="geometry"/>
                </mxCell>
                <mxCell id="39" value="" style="endArrow=open;endFill=1;endSize=12;html=1;entryX=0;entryY=0.5;entryDx=0;entryDy=0;exitX=0.5;exitY=0.5;exitDx=0;exitDy=0;exitPerimeter=0;" parent="1" source="2" target="37" edge="1">
                    <mxGeometry width="160" relative="1" as="geometry">
                        <mxPoint x="-40" y="1110" as="sourcePoint"/>
                        <mxPoint x="120" y="1110" as="targetPoint"/>
                    </mxGeometry>
                </mxCell>
                <mxCell id="45" style="edgeStyle=none;html=1;exitX=0.5;exitY=0.5;exitDx=0;exitDy=0;exitPerimeter=0;entryX=1;entryY=0.5;entryDx=0;entryDy=0;" parent="1" source="40" target="42" edge="1">
                    <mxGeometry relative="1" as="geometry"/>
                </mxCell>
                <mxCell id="46" style="edgeStyle=none;html=1;entryX=1;entryY=0.5;entryDx=0;entryDy=0;exitX=0.5;exitY=0.5;exitDx=0;exitDy=0;exitPerimeter=0;" parent="1" source="40" target="43" edge="1">
                    <mxGeometry relative="1" as="geometry">
                        <mxPoint x="1020" y="350" as="sourcePoint"/>
                    </mxGeometry>
                </mxCell>
                <mxCell id="47" style="edgeStyle=none;html=1;exitX=0.5;exitY=0.5;exitDx=0;exitDy=0;exitPerimeter=0;entryX=1;entryY=0.5;entryDx=0;entryDy=0;" parent="1" source="40" target="44" edge="1">
                    <mxGeometry relative="1" as="geometry"/>
                </mxCell>
                <mxCell id="40" value="Admin" style="shape=umlActor;verticalLabelPosition=bottom;verticalAlign=top;html=1;" parent="1" vertex="1">
                    <mxGeometry x="1050" y="460" width="30" height="60" as="geometry"/>
                </mxCell>
                <mxCell id="42" value="CRUD of Movie" style="ellipse;whiteSpace=wrap;html=1;" parent="1" vertex="1">
                    <mxGeometry x="680" y="180" width="140" height="70" as="geometry"/>
                </mxCell>
                <mxCell id="43" value="CRUD of Cinema" style="ellipse;whiteSpace=wrap;html=1;" parent="1" vertex="1">
                    <mxGeometry x="680" y="300" width="140" height="70" as="geometry"/>
                </mxCell>
                <mxCell id="44" value="CRUD of Cities" style="ellipse;whiteSpace=wrap;html=1;" parent="1" vertex="1">
                    <mxGeometry x="680" y="420" width="140" height="70" as="geometry"/>
                </mxCell>
                <mxCell id="48" value="&amp;lt;&amp;lt;include&amp;gt;&amp;gt;" style="edgeStyle=none;html=1;endArrow=open;verticalAlign=bottom;dashed=1;labelBackgroundColor=none;exitX=0;exitY=1;exitDx=0;exitDy=0;entryX=0.5;entryY=0;entryDx=0;entryDy=0;" parent="1" source="19" target="20" edge="1">
                    <mxGeometry width="160" relative="1" as="geometry">
                        <mxPoint x="420" y="740" as="sourcePoint"/>
                        <mxPoint x="580" y="740" as="targetPoint"/>
                    </mxGeometry>
                </mxCell>
                <mxCell id="49" value="&amp;lt;&amp;lt;include&amp;gt;&amp;gt;" style="edgeStyle=none;html=1;endArrow=open;verticalAlign=bottom;dashed=1;labelBackgroundColor=none;exitX=1;exitY=0.5;exitDx=0;exitDy=0;entryX=0;entryY=0.5;entryDx=0;entryDy=0;" parent="1" source="20" target="21" edge="1">
                    <mxGeometry width="160" relative="1" as="geometry">
                        <mxPoint x="480" y="750" as="sourcePoint"/>
                        <mxPoint x="640" y="750" as="targetPoint"/>
                    </mxGeometry>
                </mxCell>
                <mxCell id="50" value="Release the seat" style="ellipse;whiteSpace=wrap;html=1;" parent="1" vertex="1">
                    <mxGeometry x="150" y="930" width="140" height="70" as="geometry"/>
                </mxCell>
                <mxCell id="51" value="&amp;lt;&amp;lt;include&amp;gt;&amp;gt;" style="edgeStyle=none;html=1;endArrow=open;verticalAlign=bottom;dashed=1;labelBackgroundColor=none;exitX=0;exitY=1;exitDx=0;exitDy=0;entryX=0.5;entryY=0;entryDx=0;entryDy=0;" parent="1" source="37" target="50" edge="1">
                    <mxGeometry width="160" relative="1" as="geometry">
                        <mxPoint x="280" y="900" as="sourcePoint"/>
                        <mxPoint x="440" y="900" as="targetPoint"/>
                    </mxGeometry>
                </mxCell>
                <mxCell id="52" value="Cancel Payment" style="ellipse;whiteSpace=wrap;html=1;" parent="1" vertex="1">
                    <mxGeometry x="355" y="930" width="140" height="70" as="geometry"/>
                </mxCell>
                <mxCell id="53" value="&amp;lt;&amp;lt;include&amp;gt;&amp;gt;" style="edgeStyle=none;html=1;endArrow=open;verticalAlign=bottom;dashed=1;labelBackgroundColor=none;exitX=1;exitY=1;exitDx=0;exitDy=0;entryX=0.5;entryY=0;entryDx=0;entryDy=0;" parent="1" source="37" target="52" edge="1">
                    <mxGeometry width="160" relative="1" as="geometry">
                        <mxPoint x="410" y="890" as="sourcePoint"/>
                        <mxPoint x="570" y="890" as="targetPoint"/>
                    </mxGeometry>
                </mxCell>
                <mxCell id="57" value="Send Booking&lt;br&gt;Notification" style="ellipse;whiteSpace=wrap;html=1;" parent="1" vertex="1">
                    <mxGeometry x="700" y="620" width="140" height="70" as="geometry"/>
                </mxCell>
                <mxCell id="58" value="Cancel Booking&lt;br&gt;Notification" style="ellipse;whiteSpace=wrap;html=1;" parent="1" vertex="1">
                    <mxGeometry x="710" y="840" width="140" height="70" as="geometry"/>
                </mxCell>
                <mxCell id="61" value="&amp;lt;&amp;lt;include&amp;gt;&amp;gt;" style="edgeStyle=none;html=1;endArrow=open;verticalAlign=bottom;dashed=1;labelBackgroundColor=none;exitX=1;exitY=0.5;exitDx=0;exitDy=0;entryX=0;entryY=0.5;entryDx=0;entryDy=0;" edge="1" parent="1" source="19" target="57">
                    <mxGeometry width="160" relative="1" as="geometry">
                        <mxPoint x="530" y="610" as="sourcePoint"/>
                        <mxPoint x="690" y="610" as="targetPoint"/>
                    </mxGeometry>
                </mxCell>
                <mxCell id="62" value="&amp;lt;&amp;lt;include&amp;gt;&amp;gt;" style="edgeStyle=none;html=1;endArrow=open;verticalAlign=bottom;dashed=1;labelBackgroundColor=none;exitX=1;exitY=0.5;exitDx=0;exitDy=0;entryX=0;entryY=0.5;entryDx=0;entryDy=0;" edge="1" parent="1" source="37" target="58">
                    <mxGeometry width="160" relative="1" as="geometry">
                        <mxPoint x="440" y="850" as="sourcePoint"/>
                        <mxPoint x="600" y="850" as="targetPoint"/>
                    </mxGeometry>
                </mxCell>
            </root>
        </mxGraphModel>
    </diagram>
</mxfile>